<?xml version="1.0" standalone="no"?>
<!DOCTYPE svg PUBLIC "-//W3C//DTD SVG 20010904//EN"
 "http://www.w3.org/TR/2001/REC-SVG-20010904/DTD/svg10.dtd">
<svg version="1.0" xmlns="http://www.w3.org/2000/svg"
 width="512.000000pt" height="512.000000pt" viewBox="0 0 512.000000 512.000000"
 preserveAspectRatio="xMidYMid meet">

<g transform="translate(0.000000,512.000000) scale(0.100000,-0.100000)"
fill="#000000" stroke="none">
<path d="M75 4910 c-44 -18 -70 -59 -70 -111 0 -42 5 -53 33 -81 l32 -33 316
-5 317 -5 44 -165 c25 -91 186 -698 358 -1349 l314 -1185 -36 -39 c-76 -85
-116 -234 -94 -354 28 -159 119 -269 269 -326 l57 -22 1310 -3 c721 -2 1334 0
1362 3 94 11 145 91 108 169 -34 71 65 66 -1382 66 -719 1 -1328 5 -1352 9
-88 17 -136 80 -136 176 0 70 23 118 75 152 l33 23 1316 0 c1433 0 1368 -2
1483 56 64 32 144 113 180 179 37 70 499 1642 505 1720 17 204 -120 404 -318
466 -59 18 -123 19 -1899 19 l-1839 0 -15 53 c-8 28 -42 155 -76 281 -34 126
-68 242 -76 258 -29 57 -39 58 -436 57 -200 0 -372 -4 -383 -9z m4707 -915
c23 -17 53 -49 66 -72 49 -89 56 -57 -198 -918 -127 -434 -240 -806 -251 -826
-21 -43 -68 -81 -118 -98 -25 -8 -389 -11 -1336 -11 l-1302 0 -37 138 c-20 75
-137 516 -260 980 l-223 842 1808 -2 1807 -3 44 -30z"/>
<path d="M2125 1148 c-198 -23 -361 -172 -405 -369 -17 -77 -8 -199 20 -272
48 -127 167 -241 295 -282 78 -26 217 -27 297 -2 125 38 250 157 298 284 27
69 37 198 21 270 -32 154 -157 297 -301 348 -62 22 -154 32 -225 23z m153
-254 c169 -70 192 -309 39 -411 -186 -124 -418 49 -357 268 13 48 75 118 124
140 51 23 143 25 194 3z"/>
<path d="M3721 1148 c-94 -10 -199 -64 -271 -137 -181 -186 -183 -473 -5 -660
280 -294 766 -130 819 276 17 129 -41 288 -140 387 -105 105 -246 152 -403
134z m181 -265 c59 -32 103 -91 118 -158 39 -174 -129 -325 -304 -273 -64 19
-140 100 -156 167 -22 92 11 190 83 245 47 36 74 45 146 45 51 1 73 -4 113
-26z"/>
</g>
</svg>
