<?xml version="1.0" standalone="no"?>
<!DOCTYPE svg PUBLIC "-//W3C//DTD SVG 20010904//EN"
 "http://www.w3.org/TR/2001/REC-SVG-20010904/DTD/svg10.dtd">
<svg version="1.0" xmlns="http://www.w3.org/2000/svg"
 width="1137.000000pt" height="378.000000pt" viewBox="0 0 1137.000000 378.000000"
 preserveAspectRatio="xMidYMid meet">

<g transform="translate(0.000000,378.000000) scale(0.100000,-0.100000)"
fill="#000000" stroke="none">
<path d="M3650 2755 l0 -475 1780 0 1780 0 0 475 0 475 -1780 0 -1780 0 0
-475z m632 236 c40 -28 74 -73 83 -113 7 -28 7 -28 -46 -28 -50 0 -55 2 -67
28 -21 49 -94 67 -151 37 -38 -19 -61 -71 -61 -139 0 -105 39 -156 118 -156
54 0 77 12 97 50 14 27 20 30 66 30 51 0 51 0 44 -27 -39 -158 -270 -202 -378
-73 -15 17 -33 54 -42 82 -39 133 6 266 107 317 61 31 179 27 230 -8z m1291
15 c41 -17 75 -54 87 -94 l9 -32 -52 0 c-45 0 -54 3 -62 23 -23 50 -136 42
-143 -11 -5 -36 13 -49 104 -77 111 -34 145 -63 151 -132 7 -67 -19 -112 -79
-139 -58 -26 -159 -26 -213 1 -44 22 -85 76 -85 111 0 22 4 24 50 24 37 0 50
-4 50 -14 0 -26 50 -56 92 -56 28 0 46 7 63 25 14 13 25 28 25 33 0 24 -34 46
-110 68 -47 13 -96 32 -110 43 -77 56 -63 173 27 220 46 24 148 28 196 7z
m267 -78 l0 -92 29 28 c37 36 104 46 149 22 53 -28 62 -58 62 -216 l0 -140
-50 0 -50 0 0 124 c0 100 -3 128 -16 140 -24 25 -68 24 -96 -1 -15 -14 -18
-35 -18 -140 l0 -123 -55 0 -55 0 0 238 c0 131 3 242 7 245 3 4 26 7 50 7 l43
0 0 -92z m-1136 -53 c48 -32 56 -61 56 -210 l0 -135 -50 0 c-44 0 -50 3 -50
21 l0 20 -26 -20 c-34 -27 -85 -36 -127 -22 -48 16 -68 43 -74 95 -5 40 -2 48
24 74 21 22 46 33 89 41 112 21 126 30 101 66 -19 25 -75 25 -96 -2 -14 -16
-24 -18 -64 -14 l-48 6 23 35 c35 52 80 72 154 67 35 -3 72 -12 88 -22z m236
-4 l0 -29 29 29 c21 21 39 29 65 29 44 0 51 -11 35 -55 -11 -30 -18 -35 -45
-35 -17 0 -42 -9 -55 -19 -22 -18 -24 -27 -28 -140 l-3 -121 -49 0 -49 0 0
178 c0 98 3 182 7 185 3 4 26 7 50 7 41 0 43 -1 43 -29z m1505 -5 c46 -36 68
-85 68 -156 1 -115 -67 -185 -177 -185 -75 0 -122 26 -155 85 -32 57 -28 168
8 219 54 75 182 93 256 37z m246 -1 c4 -16 7 -24 8 -17 2 20 63 52 102 52 45
0 96 -34 120 -80 27 -50 26 -160 -2 -216 -39 -82 -139 -105 -201 -46 l-28 26
0 -97 0 -97 -50 0 -50 0 0 256 0 255 47 -3 c44 -3 48 -5 54 -33z"/>
<path d="M4570 2677 c-27 -9 -36 -18 -38 -39 -7 -58 97 -58 119 -1 21 55 -3
67 -81 40z"/>
<path d="M6280 2788 c-37 -61 -20 -157 30 -178 63 -26 105 25 98 116 -6 66
-28 94 -75 94 -27 0 -37 -6 -53 -32z"/>
<path d="M6719 2801 c-34 -27 -40 -125 -9 -163 26 -34 78 -38 104 -9 20 22 32
88 22 126 -15 59 -72 82 -117 46z"/>
<path d="M1058 3206 c-21 -7 -57 -29 -80 -47 -50 -38 -682 -705 -713 -752 -39
-58 -58 -133 -53 -211 6 -90 30 -144 101 -225 l56 -65 -50 -53 c-28 -29 -62
-79 -77 -110 -23 -50 -27 -71 -27 -148 0 -143 0 -143 406 -573 392 -415 402
-423 529 -430 93 -5 163 23 246 100 l64 60 64 -60 c83 -77 153 -105 246 -100
83 5 148 36 219 105 30 29 57 53 59 53 2 0 28 -24 57 -53 67 -69 128 -99 214
-104 82 -6 164 22 224 76 33 30 302 311 622 651 107 114 143 211 124 334 -10
61 -46 143 -74 166 -8 7 -29 30 -46 52 l-31 38 50 54 c112 123 137 278 67 416
-14 28 -156 185 -369 411 -405 428 -399 424 -546 424 -115 0 -160 -19 -241
-101 l-52 -53 -68 63 c-84 80 -138 100 -248 94 -92 -5 -154 -35 -226 -108
l-48 -48 -46 47 c-25 26 -68 60 -95 76 -42 25 -62 29 -135 32 -56 2 -99 -2
-123 -11z m167 -165 c22 -10 58 -37 79 -59 l39 -41 -38 -43 c-22 -24 -215
-229 -429 -457 l-391 -413 -34 38 c-18 22 -42 53 -52 69 -23 37 -25 114 -4
158 8 18 164 190 345 382 381 403 390 410 485 366z m579 5 c18 -8 54 -36 80
-62 l47 -49 -60 -57 c-56 -55 -61 -58 -111 -58 -64 0 -99 18 -146 75 l-37 46
43 44 c71 72 119 88 184 61z m590 0 c42 -17 702 -713 722 -761 30 -72 7 -150
-63 -217 l-38 -36 -426 452 -427 451 47 49 c70 73 119 90 185 62z m-876 -290
c78 -81 127 -101 237 -101 108 0 148 17 237 103 32 30 60 53 61 51 2 -2 194
-206 426 -452 l424 -448 -35 -37 c-20 -20 -207 -219 -417 -442 -210 -223 -388
-409 -395 -414 -10 -7 -29 6 -67 45 -77 78 -134 103 -234 104 -100 0 -153 -22
-234 -100 -32 -30 -60 -55 -63 -55 -12 0 -849 891 -846 900 4 12 841 900 848
900 3 0 29 -25 58 -54z m-653 -1371 c202 -214 393 -416 424 -447 l55 -58 -44
-46 c-70 -72 -129 -90 -195 -58 -35 16 -670 680 -704 735 -23 37 -28 110 -11
153 11 29 89 118 100 114 3 -2 172 -178 375 -393z m2204 349 c64 -73 77 -142
39 -212 -35 -63 -660 -722 -710 -748 -61 -31 -147 -1 -202 71 -23 30 -25 38
-14 53 23 33 832 882 839 882 4 0 26 -21 48 -46z m-1255 -749 c18 -9 52 -36
77 -61 l44 -45 -57 -54 c-93 -87 -164 -86 -253 5 l-49 50 44 46 c70 72 128 90
194 59z"/>
<path d="M7363 2085 c-52 -22 -75 -68 -70 -144 3 -57 7 -67 35 -92 41 -37 103
-53 172 -45 69 8 110 32 132 76 39 77 13 170 -56 201 -50 23 -166 25 -213 4z"/>
<path d="M6100 1395 l0 -675 170 0 170 0 0 234 c0 362 19 449 106 488 31 13
55 17 77 13 42 -10 57 -22 78 -70 17 -36 19 -72 19 -352 l0 -313 175 0 175 0
0 308 c0 375 -7 451 -52 534 -60 114 -163 163 -321 156 -109 -5 -160 -27 -223
-95 l-40 -44 4 246 5 245 -172 0 -171 0 0 -675z"/>
<path d="M3650 1983 c0 -4 29 -95 64 -202 35 -108 128 -391 206 -628 l141
-433 202 0 202 0 204 622 c112 342 205 628 208 635 4 11 -30 13 -188 11 l-194
-3 -87 -320 c-49 -176 -101 -381 -116 -456 l-28 -136 -22 111 c-13 61 -65 266
-116 456 l-92 345 -192 3 c-106 1 -192 -1 -192 -5z"/>
<path d="M7900 1355 l0 -637 318 4 c288 4 323 6 379 25 87 29 143 64 196 123
58 64 78 125 78 230 0 134 -49 214 -163 265 l-60 27 43 20 c57 25 95 62 127
123 23 43 26 62 26 140 0 73 -4 98 -21 131 -42 80 -107 126 -228 162 -38 12
-125 16 -372 19 l-323 5 0 -637z m557 349 c38 -28 50 -78 30 -126 -21 -49 -58
-66 -161 -74 l-86 -7 0 117 0 118 94 -4 c77 -2 100 -7 123 -24z m-14 -468 c18
-7 40 -23 51 -34 25 -29 32 -99 13 -143 -21 -52 -65 -69 -176 -69 l-91 0 0
130 0 130 85 0 c50 0 99 -6 118 -14z"/>
<path d="M5283 1705 c-145 -39 -240 -130 -294 -281 -29 -82 -37 -273 -15 -367
45 -189 173 -306 377 -343 142 -26 361 -4 459 46 l40 20 0 115 c0 79 -4 115
-11 115 -6 0 -43 -11 -81 -25 -125 -45 -291 -51 -363 -13 -50 27 -95 93 -95
139 0 5 137 9 305 9 l305 0 0 108 c-1 276 -94 422 -305 477 -74 19 -251 19
-322 0z m248 -232 c29 -18 69 -84 69 -116 0 -15 -16 -17 -146 -17 l-146 0 6
32 c19 97 134 150 217 101z"/>
<path d="M7300 1215 l0 -495 170 0 170 0 -2 493 -3 492 -167 3 -168 2 0 -495z"/>
<path d="M9082 1323 l3 -388 28 -57 c58 -119 157 -173 312 -172 115 1 189 28
252 90 24 24 47 44 52 44 5 0 18 -27 30 -60 l22 -60 130 0 129 0 -2 493 -3
492 -167 3 -168 2 0 -237 c-1 -337 -16 -428 -80 -475 -35 -25 -93 -33 -130
-18 -62 26 -64 41 -70 400 l-5 325 -168 3 -168 2 3 -387z"/>
<path d="M10160 1698 c0 -6 86 -227 190 -490 l190 -479 -25 -48 c-45 -90 -118
-128 -221 -115 l-55 6 3 -133 3 -134 70 -9 c96 -13 212 5 292 44 77 38 146
113 195 212 20 40 124 309 231 598 108 289 199 533 202 543 7 16 -5 17 -167
17 l-175 0 -93 -312 c-51 -172 -96 -324 -99 -338 -7 -21 -9 -18 -14 22 -5 38
-46 180 -173 611 -5 15 -22 17 -180 17 -127 0 -174 -3 -174 -12z"/>
</g>
</svg>
