<?xml version="1.0" standalone="no"?>
<!DOCTYPE svg PUBLIC "-//W3C//DTD SVG 20010904//EN"
 "http://www.w3.org/TR/2001/REC-SVG-20010904/DTD/svg10.dtd">
<svg version="1.0" xmlns="http://www.w3.org/2000/svg"
 width="605.000000pt" height="522.000000pt" viewBox="0 0 605.000000 522.000000"
 preserveAspectRatio="xMidYMid meet">

<g transform="translate(0.000000,522.000000) scale(0.100000,-0.100000)"
fill="#000000" stroke="none">
<path d="M1792 5040 c-108 -29 -186 -75 -279 -165 -188 -182 -1240 -1306
-1272 -1359 -125 -207 -127 -477 -4 -679 19 -32 73 -99 119 -148 46 -50 84
-94 84 -99 0 -5 -35 -47 -78 -92 -91 -97 -112 -126 -151 -205 -46 -92 -64
-175 -63 -293 0 -123 28 -225 89 -328 47 -79 1295 -1400 1370 -1450 112 -74
238 -108 373 -99 163 11 298 82 434 228 l74 80 99 -99 c157 -158 264 -207 453
-207 189 0 295 49 455 207 l99 99 74 -80 c86 -94 193 -170 289 -202 56 -20 88
-24 183 -24 149 0 238 28 354 113 73 53 1305 1359 1345 1426 102 170 123 378
57 567 -32 91 -73 155 -173 264 -46 49 -83 92 -83 95 0 3 35 43 78 90 93 102
113 130 151 207 46 92 64 175 63 293 0 154 -46 287 -135 395 -90 108 -1259
1335 -1304 1367 -69 51 -124 77 -210 99 -225 57 -439 -17 -620 -216 l-69 -77
-99 100 c-115 114 -193 162 -310 192 -145 37 -301 17 -434 -56 -44 -24 -99
-70 -164 -136 l-99 -100 -74 81 c-90 96 -200 173 -292 202 -97 31 -236 35
-330 9z m264 -325 c28 -14 86 -61 134 -110 l84 -85 -45 -47 c-66 -69 -913
-964 -1264 -1336 l-300 -318 -72 78 c-40 43 -85 103 -100 133 -51 102 -41 241
26 331 24 34 1175 1252 1238 1311 51 48 101 67 179 68 55 0 81 -5 120 -25z
m1078 13 c30 -9 68 -38 141 -109 l99 -97 -64 -73 c-79 -88 -127 -125 -193
-144 -127 -38 -214 -2 -342 141 l-68 76 84 85 c100 102 157 133 243 133 32 0
77 -5 100 -12z m1111 -4 c20 -8 60 -36 87 -62 80 -74 1210 -1270 1235 -1306
61 -91 70 -227 21 -326 -15 -30 -60 -90 -100 -133 l-73 -78 -730 772 c-401
424 -763 807 -803 850 l-73 78 81 85 c103 107 157 136 251 136 38 0 83 -7 104
-16z m-1646 -548 c156 -151 259 -196 452 -196 70 0 107 6 166 25 110 37 156
68 271 179 l103 100 68 -70 c172 -174 1531 -1616 1531 -1624 0 -10 -1588
-1690 -1597 -1690 -4 0 -54 46 -112 103 -154 150 -258 197 -441 197 -183 0
-287 -47 -443 -199 l-108 -105 -53 55 c-144 145 -1546 1633 -1546 1639 0 4 93
106 207 226 954 1009 1386 1464 1391 1464 3 0 53 -47 111 -104z m-1129 -2666
c392 -415 734 -776 759 -803 l45 -47 -84 -85 c-106 -107 -159 -135 -252 -135
-131 0 -82 -45 -895 815 -381 403 -536 574 -553 610 -21 42 -25 65 -25 140 0
115 17 153 120 269 l78 88 47 -49 c26 -26 368 -388 760 -803z m4117 642 c49
-101 41 -238 -21 -328 -24 -36 -1152 -1230 -1234 -1306 -64 -60 -108 -78 -191
-78 -94 0 -148 29 -251 136 l-81 85 73 78 c40 43 402 426 803 850 l730 772 73
-78 c40 -43 84 -102 99 -131z m-2466 -1274 c56 -19 113 -63 185 -144 l68 -76
-99 -97 c-110 -107 -139 -121 -241 -121 -86 0 -143 31 -243 133 l-84 85 73 81
c75 84 116 115 179 137 45 16 118 17 162 2z"/>
</g>
</svg>
